<?xml version="1.0" standalone="no"?>
<!DOCTYPE svg PUBLIC "-//W3C//DTD SVG 20010904//EN"
 "http://www.w3.org/TR/2001/REC-SVG-20010904/DTD/svg10.dtd">
<svg version="1.0" xmlns="http://www.w3.org/2000/svg"
 width="512.000000pt" height="512.000000pt" viewBox="0 0 512.000000 512.000000"
 preserveAspectRatio="xMidYMid meet">
<metadata>
Created by potrace 1.11, written by Peter Selinger 2001-2013
</metadata>
<g transform="translate(0.000000,512.000000) scale(0.100000,-0.100000)"
fill="#000000" stroke="none">
<path d="M441 5093 c-56 -122 -118 -335 -137 -472 -3 -25 -8 -57 -10 -71 -13
-83 -2 -310 21 -431 25 -130 110 -315 193 -419 20 -25 457 -467 971 -982 l936
-937 122 121 c67 67 124 120 126 118 7 -11 323 -366 333 -375 8 -8 58 -64 179
-201 6 -6 42 -47 81 -90 83 -93 240 -268 333 -373 36 -41 80 -89 96 -106 17
-18 55 -61 85 -96 30 -35 60 -68 66 -74 6 -5 44 -48 85 -94 41 -46 85 -96 98
-110 13 -14 46 -52 75 -85 28 -32 72 -81 99 -110 26 -28 71 -78 100 -112 114
-133 211 -183 364 -189 345 -14 563 346 403 666 -16 32 -638 660 -2223 2247
l-2202 2202 -91 0 c-89 0 -91 0 -103 -27z"/>
<path d="M3489 4553 c-306 -307 -569 -578 -585 -603 -73 -111 -115 -229 -128
-365 -4 -33 -12 -81 -18 -107 l-12 -48 345 -344 c277 -277 347 -342 360 -335
10 5 63 16 120 24 173 26 250 52 354 118 73 46 71 44 652 625 367 366 531 537
526 545 -4 8 -51 56 -103 109 l-95 96 -407 -406 -407 -406 -68 64 c-37 36 -85
84 -106 106 l-38 42 406 406 406 406 -107 106 -106 107 -407 -407 -406 -406
-103 103 c-56 56 -102 105 -102 108 0 3 180 186 400 406 220 220 400 403 400
407 0 10 -198 206 -208 206 -4 0 -257 -251 -563 -557z"/>
<path d="M853 1491 c-702 -702 -773 -775 -773 -787 0 -3 -8 -18 -19 -32 -68
-98 -73 -311 -9 -423 87 -155 231 -242 403 -241 74 0 140 16 215 52 33 16 246
223 790 766 l745 744 -315 315 c-173 173 -318 315 -322 315 -3 0 -325 -319
-715 -709z"/>
</g>
</svg>
